<?xml version="1.0" standalone="no"?>
<!DOCTYPE svg PUBLIC "-//W3C//DTD SVG 20010904//EN"
 "http://www.w3.org/TR/2001/REC-SVG-20010904/DTD/svg10.dtd">
<svg version="1.0" xmlns="http://www.w3.org/2000/svg"
 width="1400.000000pt" height="1400.000000pt" viewBox="0 0 1400.000000 1400.000000"
 preserveAspectRatio="xMidYMid meet">
<metadata>
Created by potrace 1.14, written by Peter Selinger 2001-2017
</metadata>
<g transform="translate(0.000000,1400.000000) scale(0.100000,-0.100000)"
fill="#000000" stroke="none">
<path d="M6965 13788 c-73 -8 -145 -31 -205 -66 -25 -14 -1183 -844 -2575
-1845 -1964 -1412 -2546 -1835 -2600 -1890 -107 -110 -155 -223 -156 -372 -1
-129 29 -223 105 -329 24 -34 61 -75 82 -92 22 -17 320 -232 664 -479 344
-246 626 -448 627 -449 2 -1 -282 -207 -629 -457 -347 -250 -654 -475 -682
-500 -212 -194 -224 -545 -27 -761 33 -36 250 -197 650 -484 330 -236 600
-432 601 -435 0 -4 -269 -200 -598 -437 -330 -237 -618 -452 -644 -480 -100
-107 -150 -230 -149 -371 0 -158 52 -283 161 -390 42 -40 956 -701 2550 -1844
1367 -979 2508 -1795 2537 -1813 81 -53 189 -85 286 -85 101 0 161 13 247 55
78 38 5111 3656 5189 3730 111 106 171 243 172 389 1 195 -75 339 -244 465
-50 38 -329 239 -619 447 -291 207 -528 380 -527 384 0 3 264 195 587 426 346
248 612 445 647 480 217 218 209 570 -18 781 -28 27 -332 249 -674 494 -343
245 -621 449 -620 455 2 5 287 213 633 462 434 312 648 472 689 515 199 209
197 544 -5 748 -33 34 -1042 763 -2560 1851 -1378 988 -2523 1807 -2545 1821
-97 60 -231 90 -350 76z"/>
</g>
</svg>
